Coordinates
version=1
nRows=11
nColumns=40
inDegrees=yes

Units are S.I. units (second, meters, Newtons, ...)
Angles are in degrees.

endheader
time	pelvis_tilt	pelvis_list	pelvis_rotation	pelvis_tx	pelvis_ty	pelvis_tz	hip_flexion_r	hip_adduction_r	hip_rotation_r	knee_angle_r	knee_angle_r_beta	ankle_angle_r	subtalar_angle_r	mtp_angle_r	hip_flexion_l	hip_adduction_l	hip_rotation_l	knee_angle_l	knee_angle_l_beta	ankle_angle_l	subtalar_angle_l	mtp_angle_l	lumbar_extension	lumbar_bending	lumbar_rotation	arm_flex_r	arm_add_r	arm_rot_r	elbow_flex_r	pro_sup_r	wrist_flex_r	wrist_dev_r	arm_flex_l	arm_add_l	arm_rot_l	elbow_flex_l	pro_sup_l	wrist_flex_l	wrist_dev_l
      8.80750000	     -2.26817322	     -4.51155899	      0.32169496	      1.05709627	      0.93466249	      0.40448936	     30.54749783	     -6.63865067	     -4.85217423	     57.43614190	     57.43614190	     -2.53162844	    -13.10323334	     -1.96310846	     10.87570095	     -5.04601938	     -8.71941578	     21.22328279	     21.22328279	     14.62251015	     -9.33380299	     -0.79286489	    -11.45430977	      5.99357853	      0.07359396	     -7.71709282	    -13.08194145	     -9.19383022	     26.05855468	     46.64444843	      0.00000000	      0.00000000	     16.40880818	    -17.91447740	     -5.10938366	     60.70167324	     46.48223796	      0.00000000	      0.00000000
      8.82100000	     -2.43718352	     -4.63059498	     -0.24639455	      1.05630228	      0.93502105	      0.40525825	     30.70949164	     -6.27948643	     -5.00160825	     54.01976264	     54.01976264	     -2.08225320	    -12.26586136	     -1.92690948	     10.33043423	     -5.20412343	     -9.16519583	     20.64326262	     20.64326262	     14.71469472	     -9.31921709	     -0.76729178	    -11.51280026	      6.12743012	      0.01710128	     -8.51765030	    -13.14585615	     -9.37320592	     25.78113861	     46.66220014	      0.00000000	      0.00000000	     16.94536940	    -18.20776775	     -5.31145459	     61.24663310	     46.51807626	      0.00000000	      0.00000000
      8.83450000	     -2.67126713	     -4.71769483	     -0.84271988	      1.05548510	      0.93515804	      0.40624203	     30.79377653	     -5.90484706	     -5.18724769	     50.21235640	     50.21235640	     -1.63332502	    -11.27494179	     -1.88745482	      9.86917828	     -5.34799480	     -9.67745939	     20.09840729	     20.09840729	     14.77984006	     -9.28089408	     -0.79797479	    -11.54458218	      6.21424993	      0.02299681	     -9.23914420	    -13.18235196	     -9.53795751	     25.58212307	     46.67620625	      0.00000000	      0.00000000	     17.44704010	    -18.50762667	     -5.51445640	     61.88831211	     46.55366457	      0.00000000	      0.00000000
      8.84800000	     -2.88711271	     -4.78885154	     -1.45853959	      1.05472995	      0.93521210	      0.40740461	     30.67723674	     -5.51405695	     -5.46953107	     46.00127429	     46.00127429	     -1.28421939	    -10.01571695	     -1.86912172	      9.36869468	     -5.48199465	    -10.21305513	     19.53476102	     19.53476102	     14.85035978	     -9.19913429	     -0.90593459	    -11.58976238	      6.26656852	      0.09471194	     -9.85854194	    -13.20801997	     -9.72373700	     25.45772587	     46.68946976	      0.00000000	      0.00000000	     17.90450797	    -18.76548706	     -5.71110120	     62.62182481	     46.59022466	      0.00000000	      0.00000000
      8.86150000	     -3.25690449	     -4.81657726	     -2.09001079	      1.05388604	      0.93490389	      0.40879708	     30.59942715	     -5.09018482	     -5.77360359	     41.50264450	     41.50264450	     -1.02558531	     -8.59334316	     -1.68966709	      9.08293100	     -5.58890830	    -10.75409508	     19.05366774	     19.05366774	     14.92344597	     -9.18912560	     -1.01989717	    -11.47272370	      6.23673700	      0.15189808	    -10.30923322	    -13.14967504	     -9.85298855	     25.38946972	     46.69739504	      0.00000000	      0.00000000	     18.33546975	    -19.09162734	     -5.88364961	     63.20163396	     46.62042812	      0.00000000	      0.00000000
      8.87500000	     -3.49672166	     -4.83292568	     -2.62699438	      1.05324045	      0.93471919	      0.41010166	     30.12319688	     -4.69601847	     -6.29508401	     36.63000346	     36.63000346	     -0.81487978	     -6.78054586	     -1.52933970	      8.64892114	     -5.67232762	    -11.28206671	     18.55843187	     18.55843187	     14.93797772	     -9.07904316	     -1.20791684	    -11.53948984	      6.30126286	      0.18453065	    -10.71232506	    -13.17819313	    -10.02541530	     25.35450383	     46.70785091	      0.00000000	      0.00000000	     18.69310272	    -19.25919001	     -6.00699910	     63.83994411	     46.64842586	      0.00000000	      0.00000000
      8.88850000	     -3.71832273	     -4.80363336	     -3.15766460	      1.05276522	      0.93433083	      0.41169713	     29.47830610	     -4.30572567	     -7.01204678	     31.59908736	     31.59908736	     -0.77965689	     -4.60564983	     -1.33196196	      8.20247195	     -5.72492264	    -11.82554761	     18.10388376	     18.10388376	     15.02446580	     -8.95576575	     -1.54897469	    -11.54040177	      6.16637925	      0.22163028	    -10.99157594	    -13.17684809	    -10.23530597	     25.39365495	     46.71878805	      0.00000000	      0.00000000	     19.00992485	    -19.44949363	     -6.12593262	     64.44392581	     46.67701902	      0.00000000	      0.00000000
      8.90200000	     -3.92787217	     -4.67330520	     -3.64168020	      1.05248248	      0.93374049	      0.41330207	     28.67586348	     -4.04290075	     -8.06632291	     26.50342767	     26.50342767	     -0.98191958	     -1.71063288	     -1.66460510	      7.69693951	     -5.67811898	    -12.50027606	     17.55302298	     17.55302298	     14.87855023	     -8.66474715	     -2.53389603	    -11.57581347	      5.99475004	      0.19833818	    -11.17591175	    -13.05519117	    -10.87318932	     25.64185625	     46.75086982	      0.00000000	      0.00000000	     19.17191912	    -19.65092251	     -6.30843654	     65.23515718	     46.73287778	      0.00000000	      0.00000000
      8.91550000	     -4.22008495	     -4.63516915	     -4.03336226	      1.05230719	      0.93294882	      0.41512251	     27.84241866	     -3.45962143	     -8.75555004	     21.47262480	     21.47262480	     -1.19496828	      0.42417357	     -0.62928509	      7.42905377	     -5.73426534	    -12.82448553	     17.28456363	     17.28456363	     14.97671048	     -8.68232236	     -2.83932651	    -11.43691242	      5.92924589	      0.12122261	    -11.23205696	    -13.00149932	    -11.02950733	     25.70060892	     46.75781028	      0.00000000	      0.00000000	     19.41833136	    -19.79552129	     -6.30517733	     65.40022054	     46.74611935	      0.00000000	      0.00000000
      8.92900000	     -4.34852346	     -4.44549787	     -4.38295332	      1.05251366	      0.93213208	      0.41695401	     26.94009004	     -3.18103368	    -10.12332658	     17.11523727	     17.11523727	     -0.95290915	      3.76466414	      1.42202174	      6.87966612	     -5.63010352	    -13.41012722	     16.84242688	     16.84242688	     14.95453060	     -8.35441961	     -3.71719408	    -11.41829984	      5.69026298	      0.10006380	    -11.22726281	    -12.87881887	    -11.47862096	     25.87951730	     46.77700534	      0.00000000	      0.00000000	     19.72960330	    -19.90144113	     -6.21888528	     65.39220919	     46.77234791	      0.00000000	      0.00000000
      8.94250000	     -4.59775639	     -4.30789384	     -4.65492710	      1.05285387	      0.93103318	      0.41905029	     26.17702486	     -2.66134568	    -10.87984026	     13.20890386	     13.20890386	     -1.17891397	      5.54933051	      2.95204311	      6.57715755	     -5.59426321	    -13.68697838	     16.62242716	     16.62242716	     15.12193799	     -8.32626258	     -4.00110986	    -11.18386452	      5.51890935	      0.00900451	    -11.13122418	    -12.74276488	    -11.57180531	     26.01747476	     46.77602267	      0.00000000	      0.00000000	     19.87331854	    -19.96142773	     -6.12577406	     65.31991779	     46.77406947	      0.00000000	      0.00000000
